HIERARCHY
ROOT Hips
{
  OFFSET 267.745 86.9975 -272.335
  CHANNELS 6 Xposition Yposition Zposition Zrotation Xrotation Yrotation
  JOINT LeftUpLeg
  {
    OFFSET 8.64259 1.95398 -2.38835
    CHANNELS 3 Zrotation Xrotation Yrotation
    JOINT LeftLeg
    {
      OFFSET 43.7702 0 0
      CHANNELS 3 Zrotation Xrotation Yrotation
      JOINT LeftFoot
      {
        OFFSET 40.6238 0 0
        CHANNELS 3 Zrotation Xrotation Yrotation
        JOINT LeftToeBase
        {
          OFFSET 12.7242 0 0
          CHANNELS 3 Zrotation Xrotation Yrotation
          End Site
          {
            OFFSET 0 0 0
          }
        }
      }
    }
  }
  JOINT RightUpLeg
  {
    OFFSET -8.2249 1.95398 -2.59336
    CHANNELS 3 Zrotation Xrotation Yrotation
    JOINT RightLeg
    {
      OFFSET 43.5653 0 0
      CHANNELS 3 Zrotation Xrotation Yrotation
      JOINT RightFoot
      {
        OFFSET 40.6238 0 0
        CHANNELS 3 Zrotation Xrotation Yrotation
        JOINT RightToeBase
        {
          OFFSET 12.7242 0 0
          CHANNELS 3 Zrotation Xrotation Yrotation
          End Site
          {
            OFFSET 0 0 0
          }
        }
      }
    }
  }
  JOINT Spine
  {
    OFFSET 0.165834 0.87714 6.61349
    CHANNELS 3 Zrotation Xrotation Yrotation
    JOINT Spine1
    {
      OFFSET 7.38963 1.71661e-005 0
      CHANNELS 3 Zrotation Xrotation Yrotation
      JOINT Spine2
      {
        OFFSET 11.9445 1.14441e-005 0
        CHANNELS 3 Zrotation Xrotation Yrotation
        JOINT Spine3
        {
          OFFSET 14.7254 4.19617e-005 0
          CHANNELS 3 Zrotation Xrotation Yrotation
          JOINT Spine4
          {
            OFFSET 10.9679 0 0
            CHANNELS 3 Zrotation Xrotation Yrotation
            JOINT RightShoulder
            {
              OFFSET 2.46616 -1.6653 3.69651
              CHANNELS 3 Zrotation Xrotation Yrotation
              JOINT RightArm
              {
                OFFSET 13.0012 0 0
                CHANNELS 3 Zrotation Xrotation Yrotation
                JOINT RightForeArm
                {
                  OFFSET 28.7848 1.52588e-005 0
                  CHANNELS 3 Zrotation Xrotation Yrotation
                  JOINT RightHand
                  {
                    OFFSET 26.5688 1.52588e-005 0
                    CHANNELS 3 Zrotation Xrotation Yrotation
                    End Site
                    {
                      OFFSET 0 0 0
                    }
                  }
                }
              }
            }
            JOINT LeftShoulder
            {
              OFFSET 2.38034 -1.29275 -3.7523
              CHANNELS 3 Zrotation Xrotation Yrotation
              JOINT LeftArm
              {
                OFFSET 16.3182 6.10352e-005 0
                CHANNELS 3 Zrotation Xrotation Yrotation
                JOINT LeftForeArm
                {
                  OFFSET 27.0901 0 0
                  CHANNELS 3 Zrotation Xrotation Yrotation
                  JOINT LeftHand
                  {
                    OFFSET 24.5451 1.52588e-005 0
                    CHANNELS 3 Zrotation Xrotation Yrotation
                    End Site
                    {
                      OFFSET 0 0 0
                    }
                  }
                }
              }
            }
            JOINT Neck
            {
              OFFSET 5.0226 -0.0266342 0
              CHANNELS 3 Zrotation Xrotation Yrotation
              JOINT Head
              {
                OFFSET 6.69364 2.86102e-005 0
                CHANNELS 3 Zrotation Xrotation Yrotation
                End Site
                {
                  OFFSET 0 0 0
                }
              }
            }
          }
        }
      }
    }
  }
}
MOTION
Frames:	7
Frame Time:	0.0416667
14.3321 79.8905 21.6469 -126.479 58.096 -70.397 179.459 27.1749 97.7051 -67.0648 15.4676 4.59504 54.0352 -0.664682 5.8386 63.3552 -1.69064 11.5989 178.765 36.7401 93.4924 -73.6925 -12.2088 -2.55671 58.0127 4.29498 6.77018 30.2163 -0.551097 2.54359 -0.995465 10.2035 -89.3049 6.47547 -1.69332 1.42949 -5.19525 -1.62876 1.50262 -27.7365 -2.04462 0.854396 -7.72387 -2.04462 0.854403 102.102 -47.548 -82.2684 20.1273 -15.3069 -2.1126 0.38652 -7.4825 -23.5077 -6.78562 -0.139607 -3.00932 -85.7657 -52.1652 85.145 -0.0753015 -4.68364 -28.0017 4.13099 17.2222 -22.4357 8.04733 -0.510045 -8.96841 -1.61554 -14.9142 5.76107 -6.08733 -15.2076 -17.8773 
8.50887 80.472 11.6224 -117.444 60.28 -78.1951 179.862 27.5075 97.1705 -46.3621 24.0584 4.5889 52.3094 -4.30525 -1.86941 68.8925 -1.14022 14.0175 174.95 36.6493 93.8489 -78.7828 -14.5216 -1.37409 57.9727 0.750307 -1.5887 42.0571 -3.05588 9.74935 -0.970805 9.95672 -89.4768 6.97384 -1.71471 1.11092 -4.69645 -1.66415 1.18532 -27.2401 -1.96932 0.54408 -7.22748 -1.96932 0.544076 102.303 -48.2875 -81.9466 22.9874 -16.8032 -2.44467 -4.00925 -16.143 -24.4212 -8.20578 -0.170071 -2.94686 -85.5881 -50.9147 85.2382 -0.267444 -1.86619 -27.1463 3.26588 11.0811 -28.5609 10.9721 -0.616594 -8.85058 0.985509 -15.0254 4.74126 -5.30212 -15.3629 -17.7528 
2.61633 79.299 2.42015 -126.163 68.4461 -73.124 -176.996 19.9333 94.083 -52.2385 19.0241 3.54561 61.1807 2.92419 6.90369 64.333 -1.2328 13.6485 179.359 39.8203 87.8111 -89.3157 -17.0838 -3.17813 49.2128 8.82642 7.61583 31.9894 -1.43921 13.186 -0.858001 10.3371 -88.9275 6.20342 -1.261 2.14703 -5.46878 -1.16532 2.20041 -27.9992 -1.84787 1.66895 -7.98656 -1.84788 1.66893 103.359 -51.592 -80.3428 25.6179 -17.6802 -1.53708 -2.88083 -6.53949 -32.6161 -7.29885 -0.140505 -3.51839 -85.7308 -50.8593 85.0169 -1.35287 -4.67269 -31.2337 3.79551 9.05606 -31.5836 9.3282 -0.537996 -8.73666 3.51994 -13.1485 1.97702 -4.43664 -13.2361 -14.5324 
-1.11723 79.4188 -6.2063 -117.772 72.2251 -81.9767 -175.335 15.5656 92.1427 -51.2889 18.4339 2.99628 65.7864 8.13057 11.2625 68.8311 -0.6174 16.4099 176.628 50.4208 86.0611 -88.6776 -12.5192 -2.73806 56.8643 3.97419 8.32879 47.3037 -3.57801 11.6694 -1.22569 10.2015 -89.0442 6.48087 -2.04233 1.95218 -5.1902 -1.95446 2.04013 -27.7317 -2.53455 1.24803 -7.71905 -2.53455 1.24803 102.406 -52.3597 -81.8021 31.2197 -14.3641 0.881574 -2.98109 -3.42731 -37.6759 -3.72872 -0.0340923 -4.7384 -86.4032 -50.8475 84.0092 -2.27243 -5.15186 -43.267 8.4893 9.91772 -41.4067 9.35284 -0.63037 -9.61916 9.41537 -11.5567 2.05919 -4.58344 -11.7016 -13.1791 
-3.24672 82.2982 -18.3236 -103.107 77.7715 -94.1509 -174.919 4.32488 94.3263 -39.2511 18.0193 4.42007 65.0922 6.23811 5.60491 70.9084 0.827717 21.6654 165.012 48.7655 92.1591 -75.0794 -9.3435 1.36478 57.8667 3.24483 5.93515 60.2725 -5.23829 13.0424 -1.01385 9.72826 -89.8775 7.42053 -1.97137 0.337183 -4.249 -1.95461 0.423635 -26.7961 -1.98154 -0.271126 -6.78342 -1.98153 -0.271131 99.015 -49.9014 -87.0894 34.0588 -13.4748 2.81569 3.35468 3.01682 -33.2156 -5.4882 -0.0720494 -4.04264 -86.8034 -48.3479 83.0098 -5.81945 0.181 -41.8044 15.4379 11.4792 -50.4906 10.8578 -0.636895 -9.07858 11.7168 -10.1836 7.48504 -5.87009 -11.5222 -12.7925 
-3.37938 83.5475 -32.5382 -61.8379 86.5139 -134.626 -179.82 6.29662 93.0925 -55.193 13.4941 5.40397 49.6511 -4.58743 -0.0711881 67.2259 -0.9017 14.9121 164.344 37.4265 94.0078 -69.3217 -10.3181 3.91913 60.615 0.755647 1.92268 47.4138 -3.8509 9.56403 -0.331837 9.63868 -90.2436 7.59464 -0.768122 -0.442526 -4.07616 -0.786853 -0.408284 -26.6118 -0.599617 -0.652916 -6.59914 -0.599622 -0.652917 98.2443 -52.4351 -88.1078 27.5474 -10.5839 -5.33169 9.70263 11.3853 -30.8702 -11.7029 -0.139276 -4.04241 -85.1486 -48.2448 85.5444 -10.0691 -0.432117 -26.7855 15.5519 18.5429 -39.7018 9.75077 -0.638007 -9.46119 16.3196 -9.11508 -0.0132506 -10.0989 -8.57461 -5.19263 
-2.81086 83.1036 -45.0722 59.895 78.6692 108.764 177.687 25.3541 91.8648 -89.951 14.7886 3.7903 53.1215 1.15223 16.6382 57.8975 -2.07143 9.1876 171.745 28.096 97.4031 -68.386 -14.0015 1.8959 64.6201 1.00854 7.46138 47.7111 -3.79509 10.5072 0.491183 10.19 -90.8359 6.49759 0.626821 -1.67365 -5.17424 0.552565 -1.69961 -27.7043 1.10079 -1.40798 -7.69163 1.10079 -1.40799 98.6352 -51.8649 -87.5634 23.0529 -4.29622 -25.9716 6.87394 6.4848 -40.6095 -14.0092 -0.239285 -3.31455 -83.9888 -47.0524 87.2003 -9.57798 -4.53546 -2.76567 6.75503 30.1985 -17.7847 9.1403 -0.157786 -5.23516 23.4993 -6.02947 -4.39109 -13.173 -4.38147 1.52954 
